<svg width="112" height="140" viewBox="0 0 112 140" fill="none" xmlns="http://www.w3.org/2000/svg">
<rect x="1" y="1" width="110" height="138" rx="7" fill="#454B58"/>
<path d="M27.9868 27.96L32.3651 77.5767C32.5468 79.6384 33.9818 81.3767 35.9718 81.945L53.7101 87.0134C55.2068 87.4417 56.7918 87.4417 58.2884 87.0134L76.0267 81.945C78.0168 81.3767 79.4518 79.64 79.6334 77.5767L84.0117 27.96C84.1851 26.01 82.6501 24.3334 80.6934 24.3334H31.3068C29.3501 24.3334 27.8151 26.01 27.9868 27.96Z" fill="#898E98"/>
<path d="M56 57.6666V51H70.3333L69.1667 70.1666L56 74.5V67.5L62.8333 65.1666L63.3333 57.6666H56ZM70.8333 44.3333L71.3333 37.6666H56V44.3333H70.8333Z" fill="white"/>
<path d="M55.9999 67.5V74.5L42.8333 70.1666L42.1666 61H48.8333L49.1666 65.1666L55.9999 67.5ZM47.8333 44.3333H55.9999V37.6666H40.8333L41.9999 57.6666H55.9999V51H48.3333L47.8333 44.3333Z" fill="white"/>
<path d="M34.1321 118V106.364H36.2401V111.29H41.6321V106.364H43.7457V118H41.6321V113.057H36.2401V118H34.1321ZM45.527 108.131V106.364H54.8111V108.131H51.2145V118H49.1236V108.131H45.527ZM56.6009 106.364H59.1804L62.6349 114.795H62.7713L66.2259 106.364H68.8054V118H66.7827V110.006H66.6747L63.4588 117.966H61.9474L58.7315 109.989H58.6236V118H56.6009V106.364ZM71.1009 118V106.364H73.2088V116.233H78.3338V118H71.1009Z" fill="white"/>
<rect x="1" y="1" width="110" height="138" rx="7" stroke="#5C616E" stroke-width="2"/>
</svg>
