<svg width="112" height="140" viewBox="0 0 112 140" fill="none" xmlns="http://www.w3.org/2000/svg">
<rect x="1" y="1" width="110" height="138" rx="7" fill="#454B58"/>
<path d="M27.9868 27.96L32.3651 77.5767C32.5468 79.6384 33.9818 81.3767 35.9718 81.945L53.7101 87.0134C55.2067 87.4417 56.7918 87.4417 58.2884 87.0134L76.0268 81.945C78.0168 81.3767 79.4518 79.64 79.6334 77.5767L84.0118 27.96C84.1851 26.01 82.6501 24.3334 80.6934 24.3334H31.3068C29.3501 24.3334 27.8151 26.01 27.9868 27.96Z" fill="#898E98"/>
<path d="M71.1667 37.6666H56V44.3333H64.1667L63.6667 51H56V57.6666H63.3333L62.8333 65.1666L56 67.5V74.5L69.1667 70.1666L70.3333 51L71.1667 37.6666Z" fill="white"/>
<path d="M56.0001 37.6666V44.3333H41.1667L40.6667 37.6666H56.0001ZM48.3334 51L48.6667 57.6666H56.0001V51H48.3334ZM49.0001 61H42.3334L42.8334 70.1666L56.0001 74.5V67.5L49.1667 65.1666L49.0001 61Z" fill="white"/>
<path d="M50.772 110.29H48.647C48.5864 109.941 48.4747 109.633 48.3118 109.364C48.1489 109.091 47.9463 108.86 47.7038 108.67C47.4614 108.481 47.1849 108.339 46.8743 108.244C46.5675 108.146 46.236 108.097 45.88 108.097C45.2474 108.097 44.6868 108.256 44.1982 108.574C43.7095 108.888 43.3269 109.35 43.0504 109.96C42.7739 110.566 42.6357 111.307 42.6357 112.182C42.6357 113.072 42.7739 113.822 43.0504 114.432C43.3307 115.038 43.7133 115.496 44.1982 115.807C44.6868 116.114 45.2455 116.267 45.8743 116.267C46.2228 116.267 46.5485 116.222 46.8516 116.131C47.1584 116.036 47.433 115.898 47.6754 115.716C47.9216 115.534 48.1281 115.311 48.2947 115.045C48.4652 114.78 48.5826 114.477 48.647 114.136L50.772 114.148C50.6925 114.701 50.5201 115.22 50.255 115.705C49.9936 116.189 49.6508 116.617 49.2266 116.989C48.8023 117.356 48.3061 117.644 47.7379 117.852C47.1697 118.057 46.5391 118.159 45.8459 118.159C44.8232 118.159 43.9103 117.922 43.1072 117.449C42.3042 116.975 41.6716 116.292 41.2095 115.398C40.7474 114.504 40.5163 113.432 40.5163 112.182C40.5163 110.928 40.7493 109.856 41.2152 108.966C41.6811 108.072 42.3156 107.388 43.1186 106.915C43.9216 106.441 44.8307 106.205 45.8459 106.205C46.4936 106.205 47.0959 106.295 47.6527 106.477C48.2095 106.659 48.7057 106.926 49.1413 107.278C49.5769 107.627 49.9349 108.055 50.2152 108.562C50.4993 109.066 50.6849 109.642 50.772 110.29ZM59.0263 109.562C58.9732 109.066 58.7498 108.68 58.3558 108.403C57.9657 108.127 57.4581 107.989 56.8331 107.989C56.3937 107.989 56.0168 108.055 55.7024 108.188C55.388 108.32 55.1475 108.5 54.9808 108.727C54.8142 108.955 54.7289 109.214 54.7251 109.506C54.7251 109.748 54.7801 109.958 54.8899 110.136C55.0036 110.314 55.157 110.466 55.3501 110.591C55.5433 110.712 55.7573 110.814 55.9922 110.898C56.227 110.981 56.4638 111.051 56.7024 111.108L57.7933 111.381C58.2327 111.483 58.6551 111.621 59.0604 111.795C59.4695 111.97 59.835 112.189 60.157 112.455C60.4827 112.72 60.7403 113.04 60.9297 113.415C61.1191 113.79 61.2138 114.229 61.2138 114.733C61.2138 115.415 61.0395 116.015 60.6911 116.534C60.3426 117.049 59.8388 117.453 59.1797 117.744C58.5244 118.032 57.7308 118.176 56.799 118.176C55.8937 118.176 55.1077 118.036 54.4411 117.756C53.7782 117.475 53.2592 117.066 52.8842 116.528C52.513 115.991 52.3123 115.335 52.282 114.562H54.3558C54.3861 114.968 54.5111 115.305 54.7308 115.574C54.9505 115.843 55.2365 116.044 55.5888 116.176C55.9448 116.309 56.3426 116.375 56.782 116.375C57.2403 116.375 57.6418 116.307 57.9865 116.17C58.335 116.03 58.6077 115.837 58.8047 115.591C59.0017 115.341 59.102 115.049 59.1058 114.716C59.102 114.413 59.013 114.163 58.8388 113.966C58.6645 113.765 58.4202 113.598 58.1058 113.466C57.7952 113.33 57.4316 113.208 57.0149 113.102L55.6911 112.761C54.7327 112.515 53.9751 112.142 53.4183 111.642C52.8653 111.138 52.5888 110.47 52.5888 109.636C52.5888 108.951 52.7744 108.35 53.1456 107.835C53.5206 107.32 54.0301 106.92 54.674 106.636C55.3179 106.348 56.0471 106.205 56.8615 106.205C57.6873 106.205 58.4107 106.348 59.032 106.636C59.657 106.92 60.1475 107.316 60.5036 107.824C60.8596 108.328 61.0433 108.907 61.0547 109.562H59.0263ZM69.4169 109.562C69.3639 109.066 69.1404 108.68 68.7464 108.403C68.3563 108.127 67.8487 107.989 67.2237 107.989C66.7843 107.989 66.4074 108.055 66.093 108.188C65.7786 108.32 65.5381 108.5 65.3714 108.727C65.2048 108.955 65.1196 109.214 65.1158 109.506C65.1158 109.748 65.1707 109.958 65.2805 110.136C65.3942 110.314 65.5476 110.466 65.7408 110.591C65.9339 110.712 66.148 110.814 66.3828 110.898C66.6177 110.981 66.8544 111.051 67.093 111.108L68.1839 111.381C68.6233 111.483 69.0457 111.621 69.451 111.795C69.8601 111.97 70.2256 112.189 70.5476 112.455C70.8733 112.72 71.1309 113.04 71.3203 113.415C71.5097 113.79 71.6044 114.229 71.6044 114.733C71.6044 115.415 71.4302 116.015 71.0817 116.534C70.7332 117.049 70.2294 117.453 69.5703 117.744C68.915 118.032 68.1214 118.176 67.1896 118.176C66.2843 118.176 65.4983 118.036 64.8317 117.756C64.1688 117.475 63.6499 117.066 63.2749 116.528C62.9036 115.991 62.7029 115.335 62.6726 114.562H64.7464C64.7768 114.968 64.9018 115.305 65.1214 115.574C65.3411 115.843 65.6271 116.044 65.9794 116.176C66.3355 116.309 66.7332 116.375 67.1726 116.375C67.6309 116.375 68.0324 116.307 68.3771 116.17C68.7256 116.03 68.9983 115.837 69.1953 115.591C69.3923 115.341 69.4927 115.049 69.4964 114.716C69.4927 114.413 69.4036 114.163 69.2294 113.966C69.0552 113.765 68.8108 113.598 68.4964 113.466C68.1858 113.33 67.8222 113.208 67.4055 113.102L66.0817 112.761C65.1233 112.515 64.3658 112.142 63.8089 111.642C63.2559 111.138 62.9794 110.47 62.9794 109.636C62.9794 108.951 63.165 108.35 63.5362 107.835C63.9112 107.32 64.4207 106.92 65.0646 106.636C65.7086 106.348 66.4377 106.205 67.2521 106.205C68.0779 106.205 68.8014 106.348 69.4226 106.636C70.0476 106.92 70.5381 107.316 70.8942 107.824C71.2502 108.328 71.4339 108.907 71.4453 109.562H69.4169Z" fill="white"/>
<rect x="1" y="1" width="110" height="138" rx="7" stroke="#5C616E" stroke-width="2"/>
</svg>
